<svg width="21" height="17" viewBox="0 0 21 17" fill="none" xmlns="http://www.w3.org/2000/svg">
<path fill-rule="evenodd" clip-rule="evenodd" d="M15.6249 8.50002C15.1194 8.50002 14.7057 8.91366 14.7057 9.41921V11.2576H12.8674C12.3618 11.2576 11.9482 11.6712 11.9482 12.1768C11.9482 12.6823 12.3618 13.096 12.8674 13.096H15.6249C16.1305 13.096 16.5441 12.6823 16.5441 12.1768V9.41921C16.5441 8.91366 16.1305 8.50002 15.6249 8.50002ZM5.51383 5.74245H7.35221C7.85777 5.74245 8.2714 5.32882 8.2714 4.82326C8.2714 4.3177 7.85777 3.90407 7.35221 3.90407H4.59464C4.08908 3.90407 3.67544 4.3177 3.67544 4.82326V7.58084C3.67544 8.08639 4.08908 8.50003 4.59464 8.50003C5.10019 8.50003 5.51383 8.08639 5.51383 7.58084V5.74245ZM18.3838 0.227295H1.83838C0.827273 0.227295 0 1.05457 0 2.06568V14.9344C0 15.9455 0.827273 16.7727 1.83838 16.7727H18.3838C19.3949 16.7727 20.2222 15.9455 20.2222 14.9344V2.06568C20.2222 1.05457 19.3949 0.227295 18.3838 0.227295ZM17.4648 14.9436H2.75776C2.25221 14.9436 1.83857 14.5299 1.83857 14.0244V2.97568C1.83857 2.47012 2.25221 2.05649 2.75776 2.05649H17.4648C17.9704 2.05649 18.384 2.47012 18.384 2.97568V14.0244C18.384 14.5299 17.9704 14.9436 17.4648 14.9436Z" fill="#797979"/>
</svg>
