<svg width="21" height="17" viewBox="0 0 21 17" fill="none" xmlns="http://www.w3.org/2000/svg">
<path fill-rule="evenodd" clip-rule="evenodd" d="M18.94 0H1.894C0.852299 0 0 0.852299 0 1.894V14.205C0 15.2467 0.852299 16.099 1.894 16.099H18.94C19.9817 16.099 20.834 15.2467 20.834 14.205V1.894C20.834 0.852299 19.9817 0 18.94 0ZM18.9405 13.258C18.9405 13.7788 18.5144 14.205 17.9935 14.205H10.4175V1.89401H17.9935C18.5144 1.89401 18.9405 2.32016 18.9405 2.84101V13.258ZM17.2827 5.20849H12.0742C11.686 5.20849 11.364 5.53047 11.364 5.91874C11.364 6.30701 11.686 6.62899 12.0742 6.62899H17.2827C17.671 6.62899 17.993 6.30701 17.993 5.91874C17.993 5.53047 17.671 5.20849 17.2827 5.20849ZM17.2827 7.576H12.0742C11.686 7.576 11.364 7.89798 11.364 8.28625C11.364 8.67452 11.686 8.9965 12.0742 8.9965H17.2827C17.671 8.9965 17.993 8.67452 17.993 8.28625C17.993 7.89798 17.671 7.576 17.2827 7.576ZM17.2827 9.94349H12.0742C11.686 9.94349 11.364 10.2655 11.364 10.6537C11.364 11.042 11.686 11.364 12.0742 11.364H17.2827C17.671 11.364 17.993 11.042 17.993 10.6537C17.993 10.2655 17.671 9.94349 17.2827 9.94349Z" fill="#797979"/>
</svg>
