<svg width="32" height="32" viewBox="0 0 32 32" fill="none" xmlns="http://www.w3.org/2000/svg">
<path d="M17.3334 18.6667H22.6667V21.3333H17.3334V18.6667Z" fill="#666666"/>
<path d="M17.3334 10.6667H22.6667V13.3333H17.3334V10.6667Z" fill="#666666"/>
<path fill-rule="evenodd" clip-rule="evenodd" d="M9.33337 9.33333H14.6667V14.6667H9.33337V9.33333ZM10.6667 13.3333H13.3333V10.6667H10.6667V13.3333Z" fill="#666666"/>
<path fill-rule="evenodd" clip-rule="evenodd" d="M9.33337 17.3333H14.6667V22.6667H9.33337V17.3333ZM10.6667 21.3333H13.3333V18.6667H10.6667V21.3333Z" fill="#666666"/>
<path d="M7.11089 7.11107H14.8887V4.88885H7.11089C5.88867 4.88885 4.88867 5.88885 4.88867 7.11107V18H7.11089V7.11107Z" fill="#666666"/>
<path d="M24.8885 4.88885L14 4.88885V7.11107H24.8885V19.3333H27.1107V7.11107C27.1107 5.88885 26.1107 4.88885 24.8885 4.88885Z" fill="#666666"/>
<path d="M24.8884 24.8888H12.6666V27.111H24.8884C26.1106 27.111 27.1106 26.111 27.1106 24.8888V17.111H24.8884V24.8888Z" fill="#666666"/>
<path d="M7.11089 17.111H4.88867V24.8888C4.88867 26.111 5.88867 27.111 7.11089 27.111H14.8887V24.8888H7.11089V17.111Z" fill="#666666"/>
</svg>
