<svg width="26" height="26" viewBox="0 0 26 26" fill="none" xmlns="http://www.w3.org/2000/svg">
<path fill-rule="evenodd" clip-rule="evenodd" d="M20.5833 3.25004H16.055C15.6 1.99337 14.4083 1.08337 13 1.08337C11.5917 1.08337 10.4 1.99337 9.945 3.25004H5.41667C4.225 3.25004 3.25 4.22504 3.25 5.41671V20.5834C3.25 21.775 4.225 22.75 5.41667 22.75H20.5833C21.775 22.75 22.75 21.775 22.75 20.5834V5.41671C22.75 4.22504 21.775 3.25004 20.5833 3.25004ZM13 3.25004C13.5958 3.25004 14.0833 3.73754 14.0833 4.33337C14.0833 4.92921 13.5958 5.41671 13 5.41671C12.4041 5.41671 11.9166 4.92921 11.9166 4.33337C11.9166 3.73754 12.4041 3.25004 13 3.25004ZM14.0834 18.4167H8.66671C8.07088 18.4167 7.58338 17.9292 7.58338 17.3334C7.58338 16.7375 8.07088 16.25 8.66671 16.25H14.0834C14.6792 16.25 15.1667 16.7375 15.1667 17.3334C15.1667 17.9292 14.6792 18.4167 14.0834 18.4167ZM17.3334 14.0834H8.66671C8.07088 14.0834 7.58338 13.5959 7.58338 13C7.58338 12.4042 8.07088 11.9167 8.66671 11.9167H17.3334C17.9292 11.9167 18.4167 12.4042 18.4167 13C18.4167 13.5959 17.9292 14.0834 17.3334 14.0834ZM17.3334 9.75004H8.66671C8.07088 9.75004 7.58338 9.26254 7.58338 8.66671C7.58338 8.07087 8.07088 7.58337 8.66671 7.58337H17.3334C17.9292 7.58337 18.4167 8.07087 18.4167 8.66671C18.4167 9.26254 17.9292 9.75004 17.3334 9.75004Z" fill="#797979"/>
</svg>
