<svg width="24" height="24" viewBox="0 0 24 24" fill="none" xmlns="http://www.w3.org/2000/svg">
<path d="M12.0015 2.02002C6.49148 2.02002 2.02148 6.49002 2.02148 12C2.02148 17.51 6.49148 21.98 12.0015 21.98C17.5115 21.98 21.9815 17.51 21.9815 12C21.9815 6.49002 17.5115 2.02002 12.0015 2.02002ZM12.0015 19.98C7.60148 19.98 4.02148 16.4 4.02148 12C4.02148 7.60002 7.60148 4.02002 12.0015 4.02002C16.4015 4.02002 19.9815 7.60002 19.9815 12C19.9815 16.4 16.4015 19.98 12.0015 19.98ZM12.7515 5.00002L8.25148 13.5H11.3915V19L15.7515 10.5H12.7515V5.00002Z" fill="#797979"/>
</svg>
