<svg width="204" height="204" viewBox="0 0 204 204" fill="none" xmlns="http://www.w3.org/2000/svg">
<path d="M63.6689 0.939453H56.6992V7.90915H63.6689V0.939453Z" fill="#0078D3"/>
<path d="M70.6299 0.939453H63.6602V7.90915H70.6299V0.939453Z" fill="#0078D3"/>
<path d="M77.6064 0.939453H70.6367V7.90915H77.6064V0.939453Z" fill="#0078D3"/>
<path d="M98.5087 0.939453H91.5391V7.90915H98.5087V0.939453Z" fill="#0078D3"/>
<path d="M105.485 0.939453H98.5156V7.90915H105.485V0.939453Z" fill="#0078D3"/>
<path d="M112.45 0.939453H105.48V7.90915H112.45V0.939453Z" fill="#0078D3"/>
<path d="M133.364 0.939453H126.395V7.90915H133.364V0.939453Z" fill="#0078D3"/>
<path d="M63.6689 7.91016H56.6992V14.8799H63.6689V7.91016Z" fill="#0078D3"/>
<path d="M70.6299 7.91016H63.6602V14.8799H70.6299V7.91016Z" fill="#0078D3"/>
<path d="M77.6064 7.91016H70.6367V14.8799H77.6064V7.91016Z" fill="#0078D3"/>
<path d="M84.5674 7.91016H77.5977V14.8799H84.5674V7.91016Z" fill="#0078D3"/>
<path d="M91.5478 7.91016H84.5781V14.8799H91.5478V7.91016Z" fill="#0078D3"/>
<path d="M98.5087 7.91016H91.5391V14.8799H98.5087V7.91016Z" fill="#0078D3"/>
<path d="M105.485 7.91016H98.5156V14.8799H105.485V7.91016Z" fill="#0078D3"/>
<path d="M112.45 7.91016H105.48V14.8799H112.45V7.91016Z" fill="#0078D3"/>
<path d="M126.388 7.91016H119.418V14.8799H126.388V7.91016Z" fill="#0078D3"/>
<path d="M133.364 7.91016H126.395V14.8799H133.364V7.91016Z" fill="#0078D3"/>
<path d="M140.329 7.91016H133.359V14.8799H140.329V7.91016Z" fill="#0078D3"/>
<path d="M147.306 7.91016H140.336V14.8799H147.306V7.91016Z" fill="#0078D3"/>
<path d="M63.6689 14.8789H56.6992V21.8486H63.6689V14.8789Z" fill="#0078D3"/>
<path d="M70.6299 14.8789H63.6602V21.8486H70.6299V14.8789Z" fill="#0078D3"/>
<path d="M77.6064 14.8789H70.6367V21.8486H77.6064V14.8789Z" fill="#0078D3"/>
<path d="M84.5674 14.8789H77.5977V21.8486H84.5674V14.8789Z" fill="#0078D3"/>
<path d="M98.5087 14.8789H91.5391V21.8486H98.5087V14.8789Z" fill="#0078D3"/>
<path d="M105.485 14.8789H98.5156V21.8486H105.485V14.8789Z" fill="#0078D3"/>
<path d="M147.306 14.8789H140.336V21.8486H147.306V14.8789Z" fill="#0078D3"/>
<path d="M70.6299 21.8496H63.6602V28.8193H70.6299V21.8496Z" fill="#0078D3"/>
<path d="M77.6064 21.8496H70.6367V28.8193H77.6064V21.8496Z" fill="#0078D3"/>
<path d="M84.5674 21.8496H77.5977V28.8193H84.5674V21.8496Z" fill="#0078D3"/>
<path d="M91.5478 21.8496H84.5781V28.8193H91.5478V21.8496Z" fill="#0078D3"/>
<path d="M105.485 21.8496H98.5156V28.8193H105.485V21.8496Z" fill="#0078D3"/>
<path d="M112.45 21.8496H105.48V28.8193H112.45V21.8496Z" fill="#0078D3"/>
<path d="M126.388 21.8496H119.418V28.8193H126.388V21.8496Z" fill="#0078D3"/>
<path d="M140.329 21.8496H133.359V28.8193H140.329V21.8496Z" fill="#0078D3"/>
<path d="M147.306 21.8496H140.336V28.8193H147.306V21.8496Z" fill="#0078D3"/>
<path d="M63.6689 28.8184H56.6992V35.7881H63.6689V28.8184Z" fill="#0078D3"/>
<path d="M70.6299 28.8184H63.6602V35.7881H70.6299V28.8184Z" fill="#0078D3"/>
<path d="M77.6064 28.8184H70.6367V35.7881H77.6064V28.8184Z" fill="#0078D3"/>
<path d="M91.5478 28.8184H84.5781V35.7881H91.5478V28.8184Z" fill="#0078D3"/>
<path d="M98.5087 28.8184H91.5391V35.7881H98.5087V28.8184Z" fill="#0078D3"/>
<path d="M112.45 28.8184H105.48V35.7881H112.45V28.8184Z" fill="#0078D3"/>
<path d="M126.388 28.8184H119.418V35.7881H126.388V28.8184Z" fill="#0078D3"/>
<path d="M133.364 28.8184H126.395V35.7881H133.364V28.8184Z" fill="#0078D3"/>
<path d="M140.329 28.8184H133.359V35.7881H140.329V28.8184Z" fill="#0078D3"/>
<path d="M70.6299 35.7871H63.6602V42.7568H70.6299V35.7871Z" fill="#0078D3"/>
<path d="M98.5087 35.7871H91.5391V42.7568H98.5087V35.7871Z" fill="#0078D3"/>
<path d="M105.485 35.7871H98.5156V42.7568H105.485V35.7871Z" fill="#0078D3"/>
<path d="M126.388 35.7871H119.418V42.7568H126.388V35.7871Z" fill="#0078D3"/>
<path d="M147.306 35.7871H140.336V42.7568H147.306V35.7871Z" fill="#0078D3"/>
<path d="M63.6689 42.7578H56.6992V49.7275H63.6689V42.7578Z" fill="#0078D3"/>
<path d="M77.6064 42.7578H70.6367V49.7275H77.6064V42.7578Z" fill="#0078D3"/>
<path d="M91.5478 42.7578H84.5781V49.7275H91.5478V42.7578Z" fill="#0078D3"/>
<path d="M105.485 42.7578H98.5156V49.7275H105.485V42.7578Z" fill="#0078D3"/>
<path d="M119.427 42.7578H112.457V49.7275H119.427V42.7578Z" fill="#0078D3"/>
<path d="M133.364 42.7578H126.395V49.7275H133.364V42.7578Z" fill="#0078D3"/>
<path d="M147.306 42.7578H140.336V49.7275H147.306V42.7578Z" fill="#0078D3"/>
<path d="M70.6299 49.7266H63.6602V56.6963H70.6299V49.7266Z" fill="#0078D3"/>
<path d="M91.5478 49.7266H84.5781V56.6963H91.5478V49.7266Z" fill="#0078D3"/>
<path d="M105.485 49.7266H98.5156V56.6963H105.485V49.7266Z" fill="#0078D3"/>
<path d="M7.9072 56.6973H0.9375V63.667H7.9072V56.6973Z" fill="#0078D3"/>
<path d="M28.8095 56.6973H21.8398V63.667H28.8095V56.6973Z" fill="#0078D3"/>
<path d="M35.7861 56.6973H28.8164V63.667H35.7861V56.6973Z" fill="#0078D3"/>
<path d="M42.7509 56.6973H35.7812V63.667H42.7509V56.6973Z" fill="#0078D3"/>
<path d="M49.7236 56.6973H42.7539V63.667H49.7236V56.6973Z" fill="#0078D3"/>
<path d="M56.6884 56.6973H49.7188V63.667H56.6884V56.6973Z" fill="#0078D3"/>
<path d="M63.6689 56.6973H56.6992V63.667H63.6689V56.6973Z" fill="#0078D3"/>
<path d="M70.6299 56.6973H63.6602V63.667H70.6299V56.6973Z" fill="#0078D3"/>
<path d="M91.5478 56.6973H84.5781V63.667H91.5478V56.6973Z" fill="#0078D3"/>
<path d="M98.5087 56.6973H91.5391V63.667H98.5087V56.6973Z" fill="#0078D3"/>
<path d="M105.485 56.6973H98.5156V63.667H105.485V56.6973Z" fill="#0078D3"/>
<path d="M112.45 56.6973H105.48V63.667H112.45V56.6973Z" fill="#0078D3"/>
<path d="M119.427 56.6973H112.457V63.667H119.427V56.6973Z" fill="#0078D3"/>
<path d="M126.388 56.6973H119.418V63.667H126.388V56.6973Z" fill="#0078D3"/>
<path d="M154.267 56.6973H147.297V63.667H154.267V56.6973Z" fill="#0078D3"/>
<path d="M175.185 56.6973H168.215V63.667H175.185V56.6973Z" fill="#0078D3"/>
<path d="M189.126 56.6973H182.156V63.667H189.126V56.6973Z" fill="#0078D3"/>
<path d="M196.091 56.6973H189.121V63.667H196.091V56.6973Z" fill="#0078D3"/>
<path d="M203.063 56.6973H196.094V63.667H203.063V56.6973Z" fill="#0078D3"/>
<path d="M7.9072 63.666H0.9375V70.6357H7.9072V63.666Z" fill="#0078D3"/>
<path d="M21.8447 63.666H14.875V70.6357H21.8447V63.666Z" fill="#0078D3"/>
<path d="M63.6689 63.666H56.6992V70.6357H63.6689V63.666Z" fill="#0078D3"/>
<path d="M91.5478 63.666H84.5781V70.6357H91.5478V63.666Z" fill="#0078D3"/>
<path d="M105.485 63.666H98.5156V70.6357H105.485V63.666Z" fill="#0078D3"/>
<path d="M126.388 63.666H119.418V70.6357H126.388V63.666Z" fill="#0078D3"/>
<path d="M140.329 63.666H133.359V70.6357H140.329V63.666Z" fill="#0078D3"/>
<path d="M154.267 63.666H147.297V70.6357H154.267V63.666Z" fill="#0078D3"/>
<path d="M168.208 63.666H161.238V70.6357H168.208V63.666Z" fill="#0078D3"/>
<path d="M175.185 63.666H168.215V70.6357H175.185V63.666Z" fill="#0078D3"/>
<path d="M189.126 63.666H182.156V70.6357H189.126V63.666Z" fill="#0078D3"/>
<path d="M196.091 63.666H189.121V70.6357H196.091V63.666Z" fill="#0078D3"/>
<path d="M14.872 70.6367H7.90234V77.6064H14.872V70.6367Z" fill="#0078D3"/>
<path d="M21.8447 70.6367H14.875V77.6064H21.8447V70.6367Z" fill="#0078D3"/>
<path d="M35.7861 70.6367H28.8164V77.6064H35.7861V70.6367Z" fill="#0078D3"/>
<path d="M42.7509 70.6367H35.7812V77.6064H42.7509V70.6367Z" fill="#0078D3"/>
<path d="M49.7236 70.6367H42.7539V77.6064H49.7236V70.6367Z" fill="#0078D3"/>
<path d="M70.6299 70.6367H63.6602V77.6064H70.6299V70.6367Z" fill="#0078D3"/>
<path d="M77.6064 70.6367H70.6367V77.6064H77.6064V70.6367Z" fill="#0078D3"/>
<path d="M105.485 70.6367H98.5156V77.6064H105.485V70.6367Z" fill="#0078D3"/>
<path d="M126.388 70.6367H119.418V77.6064H126.388V70.6367Z" fill="#0078D3"/>
<path d="M133.364 70.6367H126.395V77.6064H133.364V70.6367Z" fill="#0078D3"/>
<path d="M154.267 70.6367H147.297V77.6064H154.267V70.6367Z" fill="#0078D3"/>
<path d="M168.208 70.6367H161.238V77.6064H168.208V70.6367Z" fill="#0078D3"/>
<path d="M189.126 70.6367H182.156V77.6064H189.126V70.6367Z" fill="#0078D3"/>
<path d="M28.8095 77.6074H21.8398V84.5771H28.8095V77.6074Z" fill="#0078D3"/>
<path d="M35.7861 77.6074H28.8164V84.5771H35.7861V77.6074Z" fill="#0078D3"/>
<path d="M63.6689 77.6074H56.6992V84.5771H63.6689V77.6074Z" fill="#0078D3"/>
<path d="M70.6299 77.6074H63.6602V84.5771H70.6299V77.6074Z" fill="#0078D3"/>
<path d="M77.6064 77.6074H70.6367V84.5771H77.6064V77.6074Z" fill="#0078D3"/>
<path d="M105.485 77.6074H98.5156V84.5771H105.485V77.6074Z" fill="#0078D3"/>
<path d="M112.45 77.6074H105.48V84.5771H112.45V77.6074Z" fill="#0078D3"/>
<path d="M126.388 77.6074H119.418V84.5771H126.388V77.6074Z" fill="#0078D3"/>
<path d="M147.306 77.6074H140.336V84.5771H147.306V77.6074Z" fill="#0078D3"/>
<path d="M154.267 77.6074H147.297V84.5771H154.267V77.6074Z" fill="#0078D3"/>
<path d="M161.247 77.6074H154.277V84.5771H161.247V77.6074Z" fill="#0078D3"/>
<path d="M182.145 77.6074H175.176V84.5771H182.145V77.6074Z" fill="#0078D3"/>
<path d="M203.063 77.6074H196.094V84.5771H203.063V77.6074Z" fill="#0078D3"/>
<path d="M7.9072 84.5762H0.9375V91.5459H7.9072V84.5762Z" fill="#0078D3"/>
<path d="M14.872 84.5762H7.90234V91.5459H14.872V84.5762Z" fill="#0078D3"/>
<path d="M21.8447 84.5762H14.875V91.5459H21.8447V84.5762Z" fill="#0078D3"/>
<path d="M28.8095 84.5762H21.8398V91.5459H28.8095V84.5762Z" fill="#0078D3"/>
<path d="M49.7236 84.5762H42.7539V91.5459H49.7236V84.5762Z" fill="#0078D3"/>
<path d="M77.6064 84.5762H70.6367V91.5459H77.6064V84.5762Z" fill="#0078D3"/>
<path d="M91.5478 84.5762H84.5781V91.5459H91.5478V84.5762Z" fill="#0078D3"/>
<path d="M98.5087 84.5762H91.5391V91.5459H98.5087V84.5762Z" fill="#0078D3"/>
<path d="M105.485 84.5762H98.5156V91.5459H105.485V84.5762Z" fill="#0078D3"/>
<path d="M133.364 84.5762H126.395V91.5459H133.364V84.5762Z" fill="#0078D3"/>
<path d="M147.306 84.5762H140.336V91.5459H147.306V84.5762Z" fill="#0078D3"/>
<path d="M161.247 84.5762H154.277V91.5459H161.247V84.5762Z" fill="#0078D3"/>
<path d="M168.208 84.5762H161.238V91.5459H168.208V84.5762Z" fill="#0078D3"/>
<path d="M203.063 84.5762H196.094V91.5459H203.063V84.5762Z" fill="#0078D3"/>
<path d="M21.8447 91.5449H14.875V98.5146H21.8447V91.5449Z" fill="#0078D3"/>
<path d="M84.5674 91.5449H77.5977V98.5146H84.5674V91.5449Z" fill="#0078D3"/>
<path d="M91.5478 91.5449H84.5781V98.5146H91.5478V91.5449Z" fill="#0078D3"/>
<path d="M126.388 91.5449H119.418V98.5146H126.388V91.5449Z" fill="#0078D3"/>
<path d="M133.364 91.5449H126.395V98.5146H133.364V91.5449Z" fill="#0078D3"/>
<path d="M154.267 91.5449H147.297V98.5146H154.267V91.5449Z" fill="#0078D3"/>
<path d="M161.247 91.5449H154.277V98.5146H161.247V91.5449Z" fill="#0078D3"/>
<path d="M175.185 91.5449H168.215V98.5146H175.185V91.5449Z" fill="#0078D3"/>
<path d="M182.145 91.5449H175.176V98.5146H182.145V91.5449Z" fill="#0078D3"/>
<path d="M189.126 91.5449H182.156V98.5146H189.126V91.5449Z" fill="#0078D3"/>
<path d="M196.091 91.5449H189.121V98.5146H196.091V91.5449Z" fill="#0078D3"/>
<path d="M203.063 91.5449H196.094V98.5146H203.063V91.5449Z" fill="#0078D3"/>
<path d="M14.872 98.5137H7.90234V105.483H14.872V98.5137Z" fill="#0078D3"/>
<path d="M42.7509 98.5137H35.7812V105.483H42.7509V98.5137Z" fill="#0078D3"/>
<path d="M49.7236 98.5137H42.7539V105.483H49.7236V98.5137Z" fill="#0078D3"/>
<path d="M56.6884 98.5137H49.7188V105.483H56.6884V98.5137Z" fill="#0078D3"/>
<path d="M63.6689 98.5137H56.6992V105.483H63.6689V98.5137Z" fill="#0078D3"/>
<path d="M77.6064 98.5137H70.6367V105.483H77.6064V98.5137Z" fill="#0078D3"/>
<path d="M105.485 98.5137H98.5156V105.483H105.485V98.5137Z" fill="#0078D3"/>
<path d="M112.45 98.5137H105.48V105.483H112.45V98.5137Z" fill="#0078D3"/>
<path d="M126.388 98.5137H119.418V105.483H126.388V98.5137Z" fill="#0078D3"/>
<path d="M140.329 98.5137H133.359V105.483H140.329V98.5137Z" fill="#0078D3"/>
<path d="M147.306 98.5137H140.336V105.483H147.306V98.5137Z" fill="#0078D3"/>
<path d="M154.267 98.5137H147.297V105.483H154.267V98.5137Z" fill="#0078D3"/>
<path d="M161.247 98.5137H154.277V105.483H161.247V98.5137Z" fill="#0078D3"/>
<path d="M168.208 98.5137H161.238V105.483H168.208V98.5137Z" fill="#0078D3"/>
<path d="M189.126 98.5137H182.156V105.483H189.126V98.5137Z" fill="#0078D3"/>
<path d="M203.063 98.5137H196.094V105.483H203.063V98.5137Z" fill="#0078D3"/>
<path d="M7.9072 105.484H0.9375V112.454H7.9072V105.484Z" fill="#0078D3"/>
<path d="M14.872 105.484H7.90234V112.454H14.872V105.484Z" fill="#0078D3"/>
<path d="M35.7861 105.484H28.8164V112.454H35.7861V105.484Z" fill="#0078D3"/>
<path d="M56.6884 105.484H49.7188V112.454H56.6884V105.484Z" fill="#0078D3"/>
<path d="M70.6299 105.484H63.6602V112.454H70.6299V105.484Z" fill="#0078D3"/>
<path d="M77.6064 105.484H70.6367V112.454H77.6064V105.484Z" fill="#0078D3"/>
<path d="M98.5087 105.484H91.5391V112.454H98.5087V105.484Z" fill="#0078D3"/>
<path d="M105.485 105.484H98.5156V112.454H105.485V105.484Z" fill="#0078D3"/>
<path d="M119.427 105.484H112.457V112.454H119.427V105.484Z" fill="#0078D3"/>
<path d="M133.364 105.484H126.395V112.454H133.364V105.484Z" fill="#0078D3"/>
<path d="M168.208 105.484H161.238V112.454H168.208V105.484Z" fill="#0078D3"/>
<path d="M175.185 105.484H168.215V112.454H175.185V105.484Z" fill="#0078D3"/>
<path d="M189.126 105.484H182.156V112.454H189.126V105.484Z" fill="#0078D3"/>
<path d="M203.063 105.484H196.094V112.454H203.063V105.484Z" fill="#0078D3"/>
<path d="M35.7861 112.455H28.8164V119.425H35.7861V112.455Z" fill="#0078D3"/>
<path d="M49.7236 112.455H42.7539V119.425H49.7236V112.455Z" fill="#0078D3"/>
<path d="M91.5478 112.455H84.5781V119.425H91.5478V112.455Z" fill="#0078D3"/>
<path d="M112.45 112.455H105.48V119.425H112.45V112.455Z" fill="#0078D3"/>
<path d="M140.329 112.455H133.359V119.425H140.329V112.455Z" fill="#0078D3"/>
<path d="M147.306 112.455H140.336V119.425H147.306V112.455Z" fill="#0078D3"/>
<path d="M182.145 112.455H175.176V119.425H182.145V112.455Z" fill="#0078D3"/>
<path d="M7.9072 119.424H0.9375V126.394H7.9072V119.424Z" fill="#0078D3"/>
<path d="M28.8095 119.424H21.8398V126.394H28.8095V119.424Z" fill="#0078D3"/>
<path d="M63.6689 119.424H56.6992V126.394H63.6689V119.424Z" fill="#0078D3"/>
<path d="M70.6299 119.424H63.6602V126.394H70.6299V119.424Z" fill="#0078D3"/>
<path d="M126.388 119.424H119.418V126.394H126.388V119.424Z" fill="#0078D3"/>
<path d="M133.364 119.424H126.395V126.394H133.364V119.424Z" fill="#0078D3"/>
<path d="M140.329 119.424H133.359V126.394H140.329V119.424Z" fill="#0078D3"/>
<path d="M175.185 119.424H168.215V126.394H175.185V119.424Z" fill="#0078D3"/>
<path d="M189.126 119.424H182.156V126.394H189.126V119.424Z" fill="#0078D3"/>
<path d="M196.091 119.424H189.121V126.394H196.091V119.424Z" fill="#0078D3"/>
<path d="M7.9072 126.395H0.9375V133.364H7.9072V126.395Z" fill="#0078D3"/>
<path d="M14.872 126.395H7.90234V133.364H14.872V126.395Z" fill="#0078D3"/>
<path d="M21.8447 126.395H14.875V133.364H21.8447V126.395Z" fill="#0078D3"/>
<path d="M49.7236 126.395H42.7539V133.364H49.7236V126.395Z" fill="#0078D3"/>
<path d="M56.6884 126.395H49.7188V133.364H56.6884V126.395Z" fill="#0078D3"/>
<path d="M70.6299 126.395H63.6602V133.364H70.6299V126.395Z" fill="#0078D3"/>
<path d="M77.6064 126.395H70.6367V133.364H77.6064V126.395Z" fill="#0078D3"/>
<path d="M98.5087 126.395H91.5391V133.364H98.5087V126.395Z" fill="#0078D3"/>
<path d="M105.485 126.395H98.5156V133.364H105.485V126.395Z" fill="#0078D3"/>
<path d="M119.427 126.395H112.457V133.364H119.427V126.395Z" fill="#0078D3"/>
<path d="M133.364 126.395H126.395V133.364H133.364V126.395Z" fill="#0078D3"/>
<path d="M140.329 126.395H133.359V133.364H140.329V126.395Z" fill="#0078D3"/>
<path d="M154.267 126.395H147.297V133.364H154.267V126.395Z" fill="#0078D3"/>
<path d="M161.247 126.395H154.277V133.364H161.247V126.395Z" fill="#0078D3"/>
<path d="M182.145 126.395H175.176V133.364H182.145V126.395Z" fill="#0078D3"/>
<path d="M203.063 126.395H196.094V133.364H203.063V126.395Z" fill="#0078D3"/>
<path d="M7.9072 133.365H0.9375V140.335H7.9072V133.365Z" fill="#0078D3"/>
<path d="M14.872 133.365H7.90234V140.335H14.872V133.365Z" fill="#0078D3"/>
<path d="M35.7861 133.365H28.8164V140.335H35.7861V133.365Z" fill="#0078D3"/>
<path d="M42.7509 133.365H35.7812V140.335H42.7509V133.365Z" fill="#0078D3"/>
<path d="M56.6884 133.365H49.7188V140.335H56.6884V133.365Z" fill="#0078D3"/>
<path d="M63.6689 133.365H56.6992V140.335H63.6689V133.365Z" fill="#0078D3"/>
<path d="M70.6299 133.365H63.6602V140.335H70.6299V133.365Z" fill="#0078D3"/>
<path d="M77.6064 133.365H70.6367V140.335H77.6064V133.365Z" fill="#0078D3"/>
<path d="M84.5674 133.365H77.5977V140.335H84.5674V133.365Z" fill="#0078D3"/>
<path d="M98.5087 133.365H91.5391V140.335H98.5087V133.365Z" fill="#0078D3"/>
<path d="M112.45 133.365H105.48V140.335H112.45V133.365Z" fill="#0078D3"/>
<path d="M119.427 133.365H112.457V140.335H119.427V133.365Z" fill="#0078D3"/>
<path d="M140.329 133.365H133.359V140.335H140.329V133.365Z" fill="#0078D3"/>
<path d="M154.267 133.365H147.297V140.335H154.267V133.365Z" fill="#0078D3"/>
<path d="M161.247 133.365H154.277V140.335H161.247V133.365Z" fill="#0078D3"/>
<path d="M168.208 133.365H161.238V140.335H168.208V133.365Z" fill="#0078D3"/>
<path d="M175.185 133.365H168.215V140.335H175.185V133.365Z" fill="#0078D3"/>
<path d="M182.145 133.365H175.176V140.335H182.145V133.365Z" fill="#0078D3"/>
<path d="M189.126 133.365H182.156V140.335H189.126V133.365Z" fill="#0078D3"/>
<path d="M7.9072 140.334H0.9375V147.304H7.9072V140.334Z" fill="#0078D3"/>
<path d="M14.872 140.334H7.90234V147.304H14.872V140.334Z" fill="#0078D3"/>
<path d="M21.8447 140.334H14.875V147.304H21.8447V140.334Z" fill="#0078D3"/>
<path d="M42.7509 140.334H35.7812V147.304H42.7509V140.334Z" fill="#0078D3"/>
<path d="M49.7236 140.334H42.7539V147.304H49.7236V140.334Z" fill="#0078D3"/>
<path d="M70.6299 140.334H63.6602V147.304H70.6299V140.334Z" fill="#0078D3"/>
<path d="M77.6064 140.334H70.6367V147.304H77.6064V140.334Z" fill="#0078D3"/>
<path d="M91.5478 140.334H84.5781V147.304H91.5478V140.334Z" fill="#0078D3"/>
<path d="M98.5087 140.334H91.5391V147.304H98.5087V140.334Z" fill="#0078D3"/>
<path d="M126.388 140.334H119.418V147.304H126.388V140.334Z" fill="#0078D3"/>
<path d="M140.329 140.334H133.359V147.304H140.329V140.334Z" fill="#0078D3"/>
<path d="M147.306 140.334H140.336V147.304H147.306V140.334Z" fill="#0078D3"/>
<path d="M154.267 140.334H147.297V147.304H154.267V140.334Z" fill="#0078D3"/>
<path d="M161.247 140.334H154.277V147.304H161.247V140.334Z" fill="#0078D3"/>
<path d="M168.208 140.334H161.238V147.304H168.208V140.334Z" fill="#0078D3"/>
<path d="M175.185 140.334H168.215V147.304H175.185V140.334Z" fill="#0078D3"/>
<path d="M182.145 140.334H175.176V147.304H182.145V140.334Z" fill="#0078D3"/>
<path d="M189.126 140.334H182.156V147.304H189.126V140.334Z" fill="#0078D3"/>
<path d="M196.091 140.334H189.121V147.304H196.091V140.334Z" fill="#0078D3"/>
<path d="M63.6689 147.303H56.6992V154.272H63.6689V147.303Z" fill="#0078D3"/>
<path d="M84.5674 147.303H77.5977V154.272H84.5674V147.303Z" fill="#0078D3"/>
<path d="M98.5087 147.303H91.5391V154.272H98.5087V147.303Z" fill="#0078D3"/>
<path d="M119.427 147.303H112.457V154.272H119.427V147.303Z" fill="#0078D3"/>
<path d="M126.388 147.303H119.418V154.272H126.388V147.303Z" fill="#0078D3"/>
<path d="M133.364 147.303H126.395V154.272H133.364V147.303Z" fill="#0078D3"/>
<path d="M147.306 147.303H140.336V154.272H147.306V147.303Z" fill="#0078D3"/>
<path d="M175.185 147.303H168.215V154.272H175.185V147.303Z" fill="#0078D3"/>
<path d="M182.145 147.303H175.176V154.272H182.145V147.303Z" fill="#0078D3"/>
<path d="M63.6689 154.271H56.6992V161.241H63.6689V154.271Z" fill="#0078D3"/>
<path d="M98.5087 154.271H91.5391V161.241H98.5087V154.271Z" fill="#0078D3"/>
<path d="M112.45 154.271H105.48V161.241H112.45V154.271Z" fill="#0078D3"/>
<path d="M119.427 154.271H112.457V161.241H119.427V154.271Z" fill="#0078D3"/>
<path d="M140.329 154.271H133.359V161.241H140.329V154.271Z" fill="#0078D3"/>
<path d="M147.306 154.271H140.336V161.241H147.306V154.271Z" fill="#0078D3"/>
<path d="M161.247 154.271H154.277V161.241H161.247V154.271Z" fill="#0078D3"/>
<path d="M175.185 154.271H168.215V161.241H175.185V154.271Z" fill="#0078D3"/>
<path d="M182.145 154.271H175.176V161.241H182.145V154.271Z" fill="#0078D3"/>
<path d="M63.6689 161.242H56.6992V168.212H63.6689V161.242Z" fill="#0078D3"/>
<path d="M70.6299 161.242H63.6602V168.212H70.6299V161.242Z" fill="#0078D3"/>
<path d="M77.6064 161.242H70.6367V168.212H77.6064V161.242Z" fill="#0078D3"/>
<path d="M91.5478 161.242H84.5781V168.212H91.5478V161.242Z" fill="#0078D3"/>
<path d="M98.5087 161.242H91.5391V168.212H98.5087V161.242Z" fill="#0078D3"/>
<path d="M119.427 161.242H112.457V168.212H119.427V161.242Z" fill="#0078D3"/>
<path d="M126.388 161.242H119.418V168.212H126.388V161.242Z" fill="#0078D3"/>
<path d="M140.329 161.242H133.359V168.212H140.329V161.242Z" fill="#0078D3"/>
<path d="M147.306 161.242H140.336V168.212H147.306V161.242Z" fill="#0078D3"/>
<path d="M175.185 161.242H168.215V168.212H175.185V161.242Z" fill="#0078D3"/>
<path d="M196.091 161.242H189.121V168.212H196.091V161.242Z" fill="#0078D3"/>
<path d="M203.063 161.242H196.094V168.212H203.063V161.242Z" fill="#0078D3"/>
<path d="M63.6689 168.211H56.6992V175.181H63.6689V168.211Z" fill="#0078D3"/>
<path d="M84.5674 168.211H77.5977V175.181H84.5674V168.211Z" fill="#0078D3"/>
<path d="M91.5478 168.211H84.5781V175.181H91.5478V168.211Z" fill="#0078D3"/>
<path d="M98.5087 168.211H91.5391V175.181H98.5087V168.211Z" fill="#0078D3"/>
<path d="M112.45 168.211H105.48V175.181H112.45V168.211Z" fill="#0078D3"/>
<path d="M119.427 168.211H112.457V175.181H119.427V168.211Z" fill="#0078D3"/>
<path d="M140.329 168.211H133.359V175.181H140.329V168.211Z" fill="#0078D3"/>
<path d="M147.306 168.211H140.336V175.181H147.306V168.211Z" fill="#0078D3"/>
<path d="M154.267 168.211H147.297V175.181H154.267V168.211Z" fill="#0078D3"/>
<path d="M161.247 168.211H154.277V175.181H161.247V168.211Z" fill="#0078D3"/>
<path d="M168.208 168.211H161.238V175.181H168.208V168.211Z" fill="#0078D3"/>
<path d="M175.185 168.211H168.215V175.181H175.185V168.211Z" fill="#0078D3"/>
<path d="M182.145 168.211H175.176V175.181H182.145V168.211Z" fill="#0078D3"/>
<path d="M63.6689 175.182H56.6992V182.151H63.6689V175.182Z" fill="#0078D3"/>
<path d="M91.5478 175.182H84.5781V182.151H91.5478V175.182Z" fill="#0078D3"/>
<path d="M98.5087 175.182H91.5391V182.151H98.5087V175.182Z" fill="#0078D3"/>
<path d="M105.485 175.182H98.5156V182.151H105.485V175.182Z" fill="#0078D3"/>
<path d="M119.427 175.182H112.457V182.151H119.427V175.182Z" fill="#0078D3"/>
<path d="M126.388 175.182H119.418V182.151H126.388V175.182Z" fill="#0078D3"/>
<path d="M133.364 175.182H126.395V182.151H133.364V175.182Z" fill="#0078D3"/>
<path d="M140.329 175.182H133.359V182.151H140.329V175.182Z" fill="#0078D3"/>
<path d="M147.306 175.182H140.336V182.151H147.306V175.182Z" fill="#0078D3"/>
<path d="M154.267 175.182H147.297V182.151H154.267V175.182Z" fill="#0078D3"/>
<path d="M168.208 175.182H161.238V182.151H168.208V175.182Z" fill="#0078D3"/>
<path d="M196.091 175.182H189.121V182.151H196.091V175.182Z" fill="#0078D3"/>
<path d="M77.6064 182.152H70.6367V189.122H77.6064V182.152Z" fill="#0078D3"/>
<path d="M98.5087 182.152H91.5391V189.122H98.5087V182.152Z" fill="#0078D3"/>
<path d="M119.427 182.152H112.457V189.122H119.427V182.152Z" fill="#0078D3"/>
<path d="M154.267 182.152H147.297V189.122H154.267V182.152Z" fill="#0078D3"/>
<path d="M168.208 182.152H161.238V189.122H168.208V182.152Z" fill="#0078D3"/>
<path d="M175.185 182.152H168.215V189.122H175.185V182.152Z" fill="#0078D3"/>
<path d="M189.126 182.152H182.156V189.122H189.126V182.152Z" fill="#0078D3"/>
<path d="M196.091 182.152H189.121V189.122H196.091V182.152Z" fill="#0078D3"/>
<path d="M203.063 182.152H196.094V189.122H203.063V182.152Z" fill="#0078D3"/>
<path d="M84.5674 189.121H77.5977V196.091H84.5674V189.121Z" fill="#0078D3"/>
<path d="M98.5087 189.121H91.5391V196.091H98.5087V189.121Z" fill="#0078D3"/>
<path d="M112.45 189.121H105.48V196.091H112.45V189.121Z" fill="#0078D3"/>
<path d="M154.267 189.121H147.297V196.091H154.267V189.121Z" fill="#0078D3"/>
<path d="M168.208 189.121H161.238V196.091H168.208V189.121Z" fill="#0078D3"/>
<path d="M182.145 189.121H175.176V196.091H182.145V189.121Z" fill="#0078D3"/>
<path d="M189.126 189.121H182.156V196.091H189.126V189.121Z" fill="#0078D3"/>
<path d="M203.063 189.121H196.094V196.091H203.063V189.121Z" fill="#0078D3"/>
<path d="M63.6689 196.092H56.6992V203.061H63.6689V196.092Z" fill="#0078D3"/>
<path d="M84.5674 196.092H77.5977V203.061H84.5674V196.092Z" fill="#0078D3"/>
<path d="M91.5478 196.092H84.5781V203.061H91.5478V196.092Z" fill="#0078D3"/>
<path d="M126.388 196.092H119.418V203.061H126.388V196.092Z" fill="#0078D3"/>
<path d="M133.364 196.092H126.395V203.061H133.364V196.092Z" fill="#0078D3"/>
<path d="M140.329 196.092H133.359V203.061H140.329V196.092Z" fill="#0078D3"/>
<path d="M147.306 196.092H140.336V203.061H147.306V196.092Z" fill="#0078D3"/>
<path d="M161.247 196.092H154.277V203.061H161.247V196.092Z" fill="#0078D3"/>
<path d="M175.185 196.092H168.215V203.061H175.185V196.092Z" fill="#0078D3"/>
<path d="M182.145 196.092H175.176V203.061H182.145V196.092Z" fill="#0078D3"/>
<path d="M42.4072 0.939453H8.25568H0.9375V8.25764V42.4091V49.7273H8.25568H42.4072H49.7254V42.4091V8.25764V0.939453H42.4072ZM42.4072 42.4091H8.25568V8.25764H42.4072V42.4091Z" fill="#0078D3"/>
<path d="M195.747 0.939453H161.596H154.277V8.25764V42.4091V49.7273H161.596H195.747H203.065V42.4091V8.25764V0.939453H195.747ZM195.747 42.4091H161.596V8.25764H195.747V42.4091Z" fill="#0078D3"/>
<path d="M42.4072 154.271H8.25568H0.9375V161.59V195.741V203.059H8.25568H42.4072H49.7254V195.741V161.59V154.271H42.4072ZM42.4072 195.741H8.25568V161.59H42.4072V195.741Z" fill="#0078D3"/>
<path d="M35.7841 14.8789H14.875V35.788H35.7841V14.8789Z" fill="#0078D3"/>
<path d="M189.124 14.8789H168.215V35.788H189.124V14.8789Z" fill="#0078D3"/>
<path d="M35.7841 168.211H14.875V189.12H35.7841V168.211Z" fill="#0078D3"/>
</svg>
