<svg width="24" height="24" viewBox="0 0 24 24" fill="none" xmlns="http://www.w3.org/2000/svg">
<rect width="24" height="24" rx="12" fill="white"/>
<g clip-path="url(#clip0)">
<path d="M14 14L12 12L10 14" stroke="#0078D3" stroke-width="0.5" stroke-linecap="round" stroke-linejoin="round"/>
<path d="M12 12V16.5" stroke="#0078D3" stroke-linecap="round" stroke-linejoin="round"/>
<path d="M16.1957 15.1957C16.6834 14.9299 17.0686 14.5092 17.2906 14C17.5127 13.4909 17.5588 12.9223 17.4218 12.3841C17.2848 11.8458 16.9725 11.3685 16.534 11.0274C16.0956 10.6864 15.5561 10.5011 15.0007 10.5007H14.3707C14.2194 9.91535 13.9373 9.37189 13.5457 8.91122C13.1541 8.45055 12.6631 8.08465 12.1098 7.84103C11.5564 7.59741 10.955 7.4824 10.3508 7.50467C9.74655 7.52693 9.15525 7.68587 8.6213 7.96956C8.08736 8.25324 7.62467 8.65428 7.26802 9.14252C6.91138 9.63076 6.67006 10.1935 6.5622 10.7884C6.45435 11.3834 6.48277 11.995 6.64532 12.5774C6.80787 13.1597 7.10033 13.6977 7.50071 14.1507" stroke="#0078D3" stroke-linecap="round" stroke-linejoin="round"/>
<path d="M14 14L12 12L10 14" stroke="#0078D3" stroke-linecap="round" stroke-linejoin="round"/>
</g>
<defs>
<clipPath id="clip0">
<rect width="12" height="12" fill="white" transform="translate(6 6)"/>
</clipPath>
</defs>
</svg>
