<svg width="22" height="22" viewBox="0 0 22 22" fill="none" xmlns="http://www.w3.org/2000/svg">
<path d="M11.0007 1.83398C5.94065 1.83398 1.83398 5.94065 1.83398 11.0007C1.83398 16.0607 5.94065 20.1673 11.0007 20.1673C16.0607 20.1673 20.1673 16.0607 20.1673 11.0007C20.1673 5.94065 16.0607 1.83398 11.0007 1.83398ZM11.0007 18.334C6.95815 18.334 3.66732 15.0432 3.66732 11.0007C3.66732 6.95815 6.95815 3.66732 11.0007 3.66732C15.0432 3.66732 18.334 6.95815 18.334 11.0007C18.334 15.0432 15.0432 18.334 11.0007 18.334ZM11.2848 10.2123C9.66232 9.79982 9.13982 9.35065 9.13982 8.68148C9.13982 7.91148 9.86398 7.37065 11.0648 7.37065C12.3298 7.37065 12.8065 7.97565 12.8432 8.87398H14.4107C14.3648 7.64565 13.6132 6.51815 12.1282 6.15148V4.58398H9.99232V6.13315C8.60815 6.42648 7.49898 7.32482 7.49898 8.70898C7.49898 10.3498 8.86482 11.1748 10.854 11.6515C12.6415 12.0732 12.999 12.7057 12.999 13.3657C12.999 13.8515 12.6415 14.6398 11.074 14.6398C9.60732 14.6398 9.02982 13.9798 8.94732 13.1365H7.37065C7.46232 14.6948 8.61732 15.5748 9.99232 15.859V17.4173H12.1373V15.8865C13.5307 15.6207 14.6307 14.8232 14.6398 13.3473C14.6307 11.3307 12.8982 10.634 11.2848 10.2123Z" fill="#333333"/>
</svg>
