<svg width="57" height="16" viewBox="0 0 57 16" fill="none" xmlns="http://www.w3.org/2000/svg">
<path d="M36.332 8C36.332 12.4182 32.7503 16 28.332 16C23.9143 16 20.332 12.4182 20.332 8C20.332 3.58222 23.9143 0 28.332 0C32.7503 0 36.332 3.58222 36.332 8Z" fill="#FFCC4D"/>
<path d="M25.4431 8.88845C26.0568 8.88845 26.5543 8.19201 26.5543 7.3329C26.5543 6.47379 26.0568 5.77734 25.4431 5.77734C24.8295 5.77734 24.332 6.47379 24.332 7.3329C24.332 8.19201 24.8295 8.88845 25.4431 8.88845Z" fill="#664500"/>
<path d="M31.2205 8.88845C31.8341 8.88845 32.3316 8.19201 32.3316 7.3329C32.3316 6.47379 31.8341 5.77734 31.2205 5.77734C30.6068 5.77734 30.1094 6.47379 30.1094 7.3329C30.1094 8.19201 30.6068 8.88845 31.2205 8.88845Z" fill="#664500"/>
<path d="M31.444 11.5549H25.2218C24.9765 11.5549 24.7773 11.3562 24.7773 11.1105C24.7773 10.8647 24.9765 10.666 25.2218 10.666H31.444C31.6898 10.666 31.8885 10.8647 31.8885 11.1105C31.8885 11.3562 31.6898 11.5549 31.444 11.5549Z" fill="#664500"/>
<path d="M56.332 8C56.332 12.4182 52.7503 16 48.332 16C43.9143 16 40.332 12.4182 40.332 8C40.332 3.58222 43.9143 0 48.332 0C52.7503 0 56.332 3.58222 56.332 8Z" fill="#FFCC4D"/>
<path d="M45.4431 7.99978C46.0568 7.99978 46.5543 7.30334 46.5543 6.44423C46.5543 5.58512 46.0568 4.88867 45.4431 4.88867C44.8295 4.88867 44.332 5.58512 44.332 6.44423C44.332 7.30334 44.8295 7.99978 45.4431 7.99978Z" fill="#664500"/>
<path d="M51.2205 7.99978C51.8341 7.99978 52.3316 7.30334 52.3316 6.44423C52.3316 5.58512 51.8341 4.88867 51.2205 4.88867C50.6068 4.88867 50.1094 5.58512 50.1094 6.44423C50.1094 7.30334 50.6068 7.99978 51.2205 7.99978Z" fill="#664500"/>
<path d="M44.1829 12.3867C44.262 12.4582 44.3802 12.4627 44.4651 12.3996C44.4824 12.3867 46.2082 11.1107 48.3318 11.1107C50.45 11.1107 52.1815 12.3867 52.1984 12.3996C52.2833 12.4627 52.4015 12.4573 52.4806 12.3867C52.5593 12.3156 52.5771 12.1982 52.5224 12.1076C52.4651 12.0125 51.0926 9.77734 48.3318 9.77734C45.5709 9.77734 44.198 12.012 44.1411 12.1076C44.0864 12.1987 44.1038 12.3156 44.1829 12.3867Z" fill="#664500"/>
<path d="M16.332 8C16.332 12.4182 12.7503 16 8.33203 16C3.91425 16 0.332031 12.4182 0.332031 8C0.332031 3.58222 3.91425 0 8.33203 0C12.7503 0 16.332 3.58222 16.332 8Z" fill="#FFCC4D"/>
<path d="M5.44314 8.00022C6.05679 8.00022 6.55425 6.9058 6.55425 5.55577C6.55425 4.20574 6.05679 3.11133 5.44314 3.11133C4.82949 3.11133 4.33203 4.20574 4.33203 5.55577C4.33203 6.9058 4.82949 8.00022 5.44314 8.00022Z" fill="#664500"/>
<path d="M11.2205 8.00022C11.8341 8.00022 12.3316 6.9058 12.3316 5.55577C12.3316 4.20574 11.8341 3.11133 11.2205 3.11133C10.6068 3.11133 10.1094 4.20574 10.1094 5.55577C10.1094 6.9058 10.6068 8.00022 11.2205 8.00022Z" fill="#664500"/>
<path d="M8.3303 9.77711C6.72007 9.77711 5.65163 9.58955 4.3303 9.33266C4.02852 9.27444 3.44141 9.33266 3.44141 10.2216C3.44141 11.9993 5.48363 14.2216 8.3303 14.2216C11.1765 14.2216 13.2192 11.9993 13.2192 10.2216C13.2192 9.33266 12.6321 9.27399 12.3303 9.33266C11.009 9.58955 9.94052 9.77711 8.3303 9.77711Z" fill="#664500"/>
<path d="M4.33203 10.2227C4.33203 10.2227 5.66536 10.6671 8.33203 10.6671C10.9987 10.6671 12.332 10.2227 12.332 10.2227C12.332 10.2227 11.4431 12.0004 8.33203 12.0004C5.22092 12.0004 4.33203 10.2227 4.33203 10.2227Z" fill="white"/>
</svg>
