<svg width="22" height="16" viewBox="0 0 22 16" fill="none" xmlns="http://www.w3.org/2000/svg">
<path d="M17.418 9.83268V2.49935C17.418 1.49102 16.593 0.666016 15.5846 0.666016H2.7513C1.74297 0.666016 0.917969 1.49102 0.917969 2.49935V9.83268C0.917969 10.841 1.74297 11.666 2.7513 11.666H15.5846C16.593 11.666 17.418 10.841 17.418 9.83268ZM15.5846 9.83268H2.7513V2.49935H15.5846V9.83268ZM9.16797 3.41602C7.6463 3.41602 6.41797 4.64435 6.41797 6.16602C6.41797 7.68768 7.6463 8.91602 9.16797 8.91602C10.6896 8.91602 11.918 7.68768 11.918 6.16602C11.918 4.64435 10.6896 3.41602 9.16797 3.41602ZM21.0846 3.41602V13.4993C21.0846 14.5077 20.2596 15.3327 19.2513 15.3327H3.66797C3.66797 14.416 3.66797 14.5077 3.66797 13.4993H19.2513V3.41602C20.2596 3.41602 20.168 3.41602 21.0846 3.41602Z" fill="#333333"/>
</svg>
