<svg width="22" height="22" viewBox="0 0 22 22" fill="none" xmlns="http://www.w3.org/2000/svg">
<path d="M11.0007 20.1668C5.94982 20.1668 1.83398 16.051 1.83398 11.0002C1.83398 5.94933 5.94982 1.8335 11.0007 1.8335C16.0515 1.8335 20.1673 5.53683 20.1673 10.0835C20.1673 13.1177 17.7015 15.5835 14.6673 15.5835H13.0448C12.7882 15.5835 12.5865 15.7852 12.5865 16.0418C12.5865 16.1518 12.6323 16.2527 12.7057 16.3443C13.0815 16.7752 13.2923 17.316 13.2923 17.8752C13.2923 19.1402 12.2657 20.1668 11.0007 20.1668ZM11.0007 3.66683C6.95815 3.66683 3.66732 6.95766 3.66732 11.0002C3.66732 15.0427 6.95815 18.3335 11.0007 18.3335C11.2573 18.3335 11.459 18.1318 11.459 17.8752C11.459 17.7285 11.3857 17.6185 11.3307 17.5543C10.9548 17.1327 10.7532 16.5918 10.7532 16.0418C10.7532 14.7768 11.7798 13.7502 13.0448 13.7502H14.6673C16.6932 13.7502 18.334 12.1093 18.334 10.0835C18.334 6.54516 15.0432 3.66683 11.0007 3.66683Z" fill="#333333"/>
<path d="M5.95898 11.9165C6.71838 11.9165 7.33398 11.3009 7.33398 10.5415C7.33398 9.78211 6.71838 9.1665 5.95898 9.1665C5.19959 9.1665 4.58398 9.78211 4.58398 10.5415C4.58398 11.3009 5.19959 11.9165 5.95898 11.9165Z" fill="#333333"/>
<path d="M8.70898 8.25C9.46838 8.25 10.084 7.63439 10.084 6.875C10.084 6.11561 9.46838 5.5 8.70898 5.5C7.94959 5.5 7.33398 6.11561 7.33398 6.875C7.33398 7.63439 7.94959 8.25 8.70898 8.25Z" fill="#333333"/>
<path d="M13.291 8.25C14.0504 8.25 14.666 7.63439 14.666 6.875C14.666 6.11561 14.0504 5.5 13.291 5.5C12.5316 5.5 11.916 6.11561 11.916 6.875C11.916 7.63439 12.5316 8.25 13.291 8.25Z" fill="#333333"/>
<path d="M16.041 11.9165C16.8004 11.9165 17.416 11.3009 17.416 10.5415C17.416 9.78211 16.8004 9.1665 16.041 9.1665C15.2816 9.1665 14.666 9.78211 14.666 10.5415C14.666 11.3009 15.2816 11.9165 16.041 11.9165Z" fill="#333333"/>
</svg>
