<svg width="109" height="44" viewBox="0 0 109 44" fill="none" xmlns="http://www.w3.org/2000/svg">
<rect width="109" height="44" rx="19" fill="#DDDBDB"/>
<path d="M30.2912 15.9091V29H32.5668V19.9872H32.6882L36.3061 28.9616H38.0064L41.6243 20.0064H41.7457V29H44.0213V15.9091H41.1193L37.233 25.3949H37.0795L33.1932 15.9091H30.2912ZM46.6037 29H55.169V27.0121H48.9751V23.4389H54.6768V21.451H48.9751V17.897H55.1179V15.9091H46.6037V29ZM68.2951 15.9091H65.9364V24.8324H65.8214L59.6594 15.9091H57.5373V29H59.9087V20.0831H60.0174L66.1857 29H68.2951V15.9091ZM79.1312 15.9091V24.2635C79.1312 25.9062 77.987 27.0824 76.1909 27.0824C74.3883 27.0824 73.2505 25.9062 73.2505 24.2635V15.9091H70.8791V24.4616C70.8791 27.2741 72.9885 29.1982 76.1909 29.1982C79.3805 29.1982 81.5027 27.2741 81.5027 24.4616V15.9091H79.1312Z" fill="white"/>
</svg>
