<svg width="22" height="22" viewBox="0 0 22 22" fill="none" xmlns="http://www.w3.org/2000/svg">
<path d="M2.75 10.0833H10.0833V2.75H2.75V10.0833ZM4.58333 4.58333H8.25V8.25H4.58333V4.58333Z" fill="#323232"/>
<path d="M2.75 19.2493H10.0833V11.916H2.75V19.2493ZM4.58333 13.7493H8.25V17.416H4.58333V13.7493Z" fill="#323232"/>
<path d="M11.918 2.75V10.0833H19.2513V2.75H11.918ZM17.418 8.25H13.7513V4.58333H17.418V8.25Z" fill="#323232"/>
<path d="M19.2513 17.416H17.418V19.2493H19.2513V17.416Z" fill="#323232"/>
<path d="M13.7513 11.916H11.918V13.7493H13.7513V11.916Z" fill="#323232"/>
<path d="M15.5833 13.75H13.75V15.5833H15.5833V13.75Z" fill="#323232"/>
<path d="M13.7513 15.584H11.918V17.4173H13.7513V15.584Z" fill="#323232"/>
<path d="M15.5833 17.416H13.75V19.2493H15.5833V17.416Z" fill="#323232"/>
<path d="M17.4154 15.584H15.582V17.4173H17.4154V15.584Z" fill="#323232"/>
<path d="M17.4154 11.916H15.582V13.7493H17.4154V11.916Z" fill="#323232"/>
<path d="M19.2513 13.75H17.418V15.5833H19.2513V13.75Z" fill="#323232"/>
</svg>
