<svg width="89" height="89" viewBox="0 0 89 89" fill="none" xmlns="http://www.w3.org/2000/svg">
<circle cx="44.5" cy="44.5" r="44.5" fill="#DDDBDB"/>
<path d="M20.2912 37.9091V51H22.5668V41.9872H22.6882L26.3061 50.9616H28.0064L31.6243 42.0064H31.7457V51H34.0213V37.9091H31.1193L27.233 47.3949H27.0795L23.1932 37.9091H20.2912ZM36.6037 51H45.169V49.0121H38.9751V45.4389H44.6768V43.451H38.9751V39.897H45.1179V37.9091H36.6037V51ZM58.2951 37.9091H55.9364V46.8324H55.8214L49.6594 37.9091H47.5373V51H49.9087V42.0831H50.0174L56.1857 51H58.2951V37.9091ZM69.1312 37.9091V46.2635C69.1312 47.9062 67.987 49.0824 66.1909 49.0824C64.3883 49.0824 63.2505 47.9062 63.2505 46.2635V37.9091H60.8791V46.4616C60.8791 49.2741 62.9885 51.1982 66.1909 51.1982C69.3805 51.1982 71.5027 49.2741 71.5027 46.4616V37.9091H69.1312Z" fill="white"/>
</svg>
