<svg width="22" height="22" viewBox="0 0 22 22" fill="none" xmlns="http://www.w3.org/2000/svg">
<path d="M20.1673 8.24984V13.7498C20.1673 14.7582 19.3423 15.5832 18.334 15.5832H17.4173V13.7498H18.334V8.24984H3.66732V13.7498H9.16732V15.5832H3.66732C2.65898 15.5832 1.83398 14.7582 1.83398 13.7498V8.24984C1.83398 7.2415 2.65898 6.4165 3.66732 6.4165H18.334C19.3423 6.4165 20.1673 7.2415 20.1673 8.24984ZM13.2923 17.4165L14.2915 15.2073L16.5007 14.2082L14.2915 13.209L13.2923 10.9998L12.2932 13.209L10.084 14.2082L12.2932 15.2073L13.2923 17.4165ZM15.584 12.8332L16.1523 11.5682L17.4173 10.9998L16.1523 10.4315L15.584 9.1665L15.0157 10.4315L13.7507 10.9998L15.0157 11.5682L15.584 12.8332ZM13.2923 17.4165L14.2915 15.2073L16.5007 14.2082L14.2915 13.209L13.2923 10.9998L12.2932 13.209L10.084 14.2082L12.2932 15.2073L13.2923 17.4165ZM15.584 12.8332L16.1523 11.5682L17.4173 10.9998L16.1523 10.4315L15.584 9.1665L15.0157 10.4315L13.7507 10.9998L15.0157 11.5682L15.584 12.8332Z" fill="#333333"/>
</svg>
